<svg width="48" height="60" viewBox="0 0 48 60" fill="none" xmlns="http://www.w3.org/2000/svg">
<rect y="6" width="48" height="48" fill="black"/>
<path d="M21.84 16.12V19.08H9.72V28.48H19.56V31.44H9.72V44H6.08V16.12H21.84Z" fill="white"/>
<path d="M37.04 29.64C38.0533 29.8 38.9733 30.2133 39.8 30.88C40.6533 31.5467 41.32 32.3733 41.8 33.36C42.3067 34.3467 42.56 35.4 42.56 36.52C42.56 37.9333 42.2 39.2133 41.48 40.36C40.76 41.48 39.7067 42.3733 38.32 43.04C36.96 43.68 35.3467 44 33.48 44H23.08V16.12H33.08C34.9733 16.12 36.5867 16.44 37.92 17.08C39.2533 17.6933 40.2533 18.5333 40.92 19.6C41.5867 20.6667 41.92 21.8667 41.92 23.2C41.92 24.8533 41.4667 26.2267 40.56 27.32C39.68 28.3867 38.5067 29.16 37.04 29.64ZM26.72 28.16H32.84C34.5467 28.16 35.8667 27.76 36.8 26.96C37.7333 26.16 38.2 25.0533 38.2 23.64C38.2 22.2267 37.7333 21.12 36.8 20.32C35.8667 19.52 34.52 19.12 32.76 19.12H26.72V28.16ZM33.16 41C34.9733 41 36.3867 40.5733 37.4 39.72C38.4133 38.8667 38.92 37.68 38.92 36.16C38.92 34.6133 38.3867 33.4 37.32 32.52C36.2533 31.6133 34.8267 31.16 33.04 31.16H26.72V41H33.16Z" fill="white"/>
</svg>
