<svg width="48" height="21" viewBox="0 0 48 21" fill="none" xmlns="http://www.w3.org/2000/svg">
<path fill-rule="evenodd" clip-rule="evenodd" d="M27.2571 8.76224C24.3059 10.4002 16.4169 3.93465 12.2511 0.131477C12.0026 -0.0953883 11.6069 -0.0182049 11.4608 0.28493L8.11916 7.2213C8.11916 7.2213 5.23577 12.2523 3.42658 11.2804C2.56533 10.8177 0.582 17.9131 0.0172986 20.01C-0.0637932 20.3111 0.15061 20.606 0.462202 20.6184C7.10061 20.8835 15.8772 17.6381 14.0556 17.1118C13.6598 16.9974 12.0202 16.8831 10.0414 16.0624C6.56076 14.6187 6.56036 12.8373 9.79449 12.5798C13.7707 12.2631 15.9847 12.539 16.5582 11.6864C16.9649 11.0819 16.6389 10.0832 15.5106 7.86438C14.9908 6.84204 16.3566 5.80177 17.2003 6.57864C26.8573 15.4706 40.7382 26.8289 32.5564 16.5219C29.1689 12.2545 29.999 4.1341 32.8259 7.2213C35.6527 10.3085 35.6715 10.3816 37.1792 11.9664C41.1403 16.13 45.9737 21.3672 47.8647 20.5992C45.7487 21.1749 31.8336 3.76682 31.3403 3.76682C30.8471 3.76682 30.587 6.91416 27.2571 8.76224Z" fill="#F9F9F9"/>
</svg>
